<mxfile host="app.diagrams.net" agent="Mozilla/5.0 (Macintosh; Intel Mac OS X 10_15_7) AppleWebKit/537.36 (KHTML, like Gecko) Chrome/138.0.0.0 Safari/537.36" version="28.0.5">
  <diagram name="Page-1" id="qr48UalCv6BhAmQ7tV-3">
    <mxGraphModel dx="1634" dy="790" grid="0" gridSize="10" guides="1" tooltips="1" connect="1" arrows="1" fold="1" page="0" pageScale="1" pageWidth="850" pageHeight="1100" math="0" shadow="0">
      <root>
        <mxCell id="0" />
        <mxCell id="1" parent="0" />
        <mxCell id="49ZTAuXhsWwHGIT76fu1-17" style="edgeStyle=orthogonalEdgeStyle;rounded=0;orthogonalLoop=1;jettySize=auto;html=1;exitX=0;exitY=0.5;exitDx=0;exitDy=0;entryX=1;entryY=0.5;entryDx=0;entryDy=0;strokeWidth=2;" edge="1" parent="1" source="49ZTAuXhsWwHGIT76fu1-13" target="49ZTAuXhsWwHGIT76fu1-4">
          <mxGeometry relative="1" as="geometry" />
        </mxCell>
        <mxCell id="49ZTAuXhsWwHGIT76fu1-13" value="" style="rounded=1;whiteSpace=wrap;html=1;strokeWidth=2;" vertex="1" parent="1">
          <mxGeometry x="567.5" y="310" width="162" height="69" as="geometry" />
        </mxCell>
        <mxCell id="49ZTAuXhsWwHGIT76fu1-12" value="" style="rounded=1;whiteSpace=wrap;html=1;strokeWidth=2;" vertex="1" parent="1">
          <mxGeometry x="567.5" y="209" width="162" height="69" as="geometry" />
        </mxCell>
        <mxCell id="49ZTAuXhsWwHGIT76fu1-11" value="" style="rounded=1;whiteSpace=wrap;html=1;strokeWidth=2;" vertex="1" parent="1">
          <mxGeometry x="566" y="90" width="162" height="69" as="geometry" />
        </mxCell>
        <mxCell id="49ZTAuXhsWwHGIT76fu1-14" style="edgeStyle=orthogonalEdgeStyle;rounded=0;orthogonalLoop=1;jettySize=auto;html=1;exitX=1;exitY=0.25;exitDx=0;exitDy=0;entryX=0;entryY=0.5;entryDx=0;entryDy=0;dashed=1;strokeWidth=2;" edge="1" parent="1" source="49ZTAuXhsWwHGIT76fu1-10" target="49ZTAuXhsWwHGIT76fu1-11">
          <mxGeometry relative="1" as="geometry" />
        </mxCell>
        <mxCell id="49ZTAuXhsWwHGIT76fu1-15" style="edgeStyle=orthogonalEdgeStyle;rounded=0;orthogonalLoop=1;jettySize=auto;html=1;exitX=1;exitY=0.5;exitDx=0;exitDy=0;entryX=0;entryY=0.5;entryDx=0;entryDy=0;dashed=1;strokeWidth=2;" edge="1" parent="1" source="49ZTAuXhsWwHGIT76fu1-10" target="49ZTAuXhsWwHGIT76fu1-12">
          <mxGeometry relative="1" as="geometry" />
        </mxCell>
        <mxCell id="49ZTAuXhsWwHGIT76fu1-16" style="edgeStyle=orthogonalEdgeStyle;rounded=0;orthogonalLoop=1;jettySize=auto;html=1;exitX=1;exitY=0.75;exitDx=0;exitDy=0;entryX=0;entryY=0.25;entryDx=0;entryDy=0;strokeWidth=2;" edge="1" parent="1" source="49ZTAuXhsWwHGIT76fu1-10" target="49ZTAuXhsWwHGIT76fu1-13">
          <mxGeometry relative="1" as="geometry" />
        </mxCell>
        <mxCell id="49ZTAuXhsWwHGIT76fu1-10" value="" style="rounded=1;whiteSpace=wrap;html=1;dashed=1;strokeWidth=2;" vertex="1" parent="1">
          <mxGeometry x="218" y="185.5" width="217" height="116" as="geometry" />
        </mxCell>
        <mxCell id="49ZTAuXhsWwHGIT76fu1-9" value="" style="rounded=1;whiteSpace=wrap;html=1;strokeWidth=2;fillColor=#f5f5f5;fontColor=#333333;strokeColor=#666666;" vertex="1" parent="1">
          <mxGeometry x="237.5" y="203" width="178" height="81" as="geometry" />
        </mxCell>
        <mxCell id="49ZTAuXhsWwHGIT76fu1-4" value="" style="rounded=1;whiteSpace=wrap;html=1;strokeWidth=2;" vertex="1" parent="1">
          <mxGeometry x="-40" y="314.5" width="168" height="60" as="geometry" />
        </mxCell>
        <mxCell id="49ZTAuXhsWwHGIT76fu1-18" style="edgeStyle=orthogonalEdgeStyle;rounded=0;orthogonalLoop=1;jettySize=auto;html=1;exitX=1;exitY=0.5;exitDx=0;exitDy=0;entryX=0;entryY=0.5;entryDx=0;entryDy=0;strokeWidth=2;" edge="1" parent="1" source="49ZTAuXhsWwHGIT76fu1-2" target="49ZTAuXhsWwHGIT76fu1-10">
          <mxGeometry relative="1" as="geometry" />
        </mxCell>
        <mxCell id="49ZTAuXhsWwHGIT76fu1-2" value="" style="rounded=1;whiteSpace=wrap;html=1;strokeWidth=2;" vertex="1" parent="1">
          <mxGeometry x="-40" y="213.5" width="168" height="60" as="geometry" />
        </mxCell>
        <mxCell id="49ZTAuXhsWwHGIT76fu1-1" value="&lt;font style=&quot;font-size: 16px;&quot;&gt;我的订单在哪里？&lt;/font&gt;" style="text;html=1;align=center;verticalAlign=middle;whiteSpace=wrap;rounded=0;" vertex="1" parent="1">
          <mxGeometry x="-24.5" y="228.5" width="137" height="30" as="geometry" />
        </mxCell>
        <mxCell id="49ZTAuXhsWwHGIT76fu1-3" value="&lt;font style=&quot;font-size: 16px;&quot;&gt;正在配送中！&lt;/font&gt;" style="text;html=1;align=center;verticalAlign=middle;whiteSpace=wrap;rounded=0;" vertex="1" parent="1">
          <mxGeometry x="-8.5" y="329.5" width="105" height="30" as="geometry" />
        </mxCell>
        <mxCell id="49ZTAuXhsWwHGIT76fu1-5" value="&lt;span style=&quot;font-size: 16px;&quot;&gt;请求分发智能体&lt;/span&gt;" style="text;html=1;align=center;verticalAlign=middle;whiteSpace=wrap;rounded=0;" vertex="1" parent="1">
          <mxGeometry x="268" y="228.5" width="117" height="30" as="geometry" />
        </mxCell>
        <mxCell id="49ZTAuXhsWwHGIT76fu1-6" value="&lt;span style=&quot;font-size: 16px;&quot;&gt;问题与维修智能体&lt;/span&gt;" style="text;html=1;align=center;verticalAlign=middle;whiteSpace=wrap;rounded=0;" vertex="1" parent="1">
          <mxGeometry x="580" y="111" width="137" height="30" as="geometry" />
        </mxCell>
        <mxCell id="49ZTAuXhsWwHGIT76fu1-7" value="&lt;span style=&quot;font-size: 16px;&quot;&gt;销售智能体&lt;/span&gt;" style="text;html=1;align=center;verticalAlign=middle;whiteSpace=wrap;rounded=0;" vertex="1" parent="1">
          <mxGeometry x="580" y="228.5" width="137" height="30" as="geometry" />
        </mxCell>
        <mxCell id="49ZTAuXhsWwHGIT76fu1-8" value="&lt;span style=&quot;font-size: 16px;&quot;&gt;订单智能体&lt;/span&gt;" style="text;html=1;align=center;verticalAlign=middle;whiteSpace=wrap;rounded=0;" vertex="1" parent="1">
          <mxGeometry x="580" y="329.5" width="137" height="30" as="geometry" />
        </mxCell>
      </root>
    </mxGraphModel>
  </diagram>
</mxfile>
